<svg version="1.1" id="Layer_1" xmlns="http://www.w3.org/2000/svg" xmlns:xlink="http://www.w3.org/1999/xlink" x="0px" y="0px"
	 width="100%" viewBox="0 0 496 496" enable-background="new 0 0 496 496" xml:space="preserve">
<path fill="#000000" opacity="1.000000" stroke="none" 
	d="
M410.574524,331.419495 
	C401.039246,349.737061 389.462250,366.188568 374.652710,380.032074 
	C346.960968,405.917511 314.502533,422.169037 276.676239,427.455109 
	C240.183182,432.554840 205.225357,427.343018 172.508209,410.805725 
	C130.566620,389.605835 101.030518,356.727295 84.667236,312.366852 
	C78.878319,296.673248 75.893646,280.511078 74.486481,263.833160 
	C72.684921,242.480881 75.330276,221.773666 81.119415,201.356506 
	C82.256660,197.345642 81.117088,194.141235 79.543442,190.867264 
	C68.583389,168.064621 57.547470,145.298447 46.539406,122.518890 
	C45.469948,120.305809 44.064285,118.195335 44.274738,115.062431 
	C51.146317,115.570076 57.577431,117.779335 64.063469,119.369736 
	C81.801109,123.719055 99.702888,127.195610 117.653549,130.484665 
	C120.540871,131.013687 122.358650,129.835175 124.184166,127.896866 
	C138.961746,112.206169 156.216141,99.901070 175.754089,90.879181 
	C195.980957,81.539162 217.137222,76.110466 239.501923,74.479538 
	C265.705719,72.568672 290.838135,76.524986 315.186066,85.731827 
	C336.366211,93.740822 355.634827,105.110039 371.937500,121.058434 
	C374.770966,123.830330 378.261993,125.867531 380.532440,129.305420 
	C381.780670,131.195435 383.996002,130.596939 386.050323,130.272293 
	C409.512695,126.564384 432.584503,121.055435 455.607025,115.313881 
	C456.736938,115.032097 457.820404,114.547523 459.026337,115.224861 
	C459.874542,116.376289 459.086975,117.382858 458.605316,118.382050 
	C449.068298,138.166382 439.508301,157.939621 429.977936,177.727158 
	C427.379669,183.121948 424.903625,188.575760 422.288849,193.962372 
	C421.196930,196.211807 421.321136,198.316132 421.979034,200.701965 
	C426.495850,217.082535 429.257080,233.723206 429.304993,250.779373 
	C429.384277,279.010864 423.052734,305.732422 410.574524,331.419495 
M195.302017,158.334396 
	C165.732712,156.228424 136.388779,152.162811 106.846085,147.997391 
	C166.651138,211.194153 215.794815,281.331024 251.595444,362.247925 
	C269.642792,321.341339 290.752289,283.823547 315.208038,248.196655 
	C339.646667,212.594635 366.968933,179.328903 397.524445,147.531296 
	C395.778137,147.531296 395.127380,147.436218 394.512573,147.544846 
	C351.357727,155.169006 307.831940,159.239227 264.076080,160.952377 
	C241.407578,161.839920 218.812317,160.101257 195.302017,158.334396 
M280.441437,141.723190 
	C299.315857,140.815765 318.145142,139.471268 337.901825,136.824707 
	C286.807098,96.243050 210.262924,99.577095 165.430130,137.116486 
	C203.958878,140.982300 241.566498,144.414017 280.441437,141.723190 
M377.530731,307.032135 
	C415.916077,272.256531 409.248169,216.964783 382.501495,192.329300 
	C379.306488,194.700150 377.233856,198.175919 374.433838,200.925705 
	C371.473541,203.832794 371.694366,205.907990 374.182465,209.292297 
	C398.283569,242.074768 386.286346,288.425262 349.416840,305.684448 
	C334.788757,312.532074 319.682037,313.435150 304.169708,309.265594 
	C302.166534,308.727203 299.984344,307.465729 298.414307,310.125336 
	C296.245331,313.799591 293.761047,317.320312 292.637817,321.484863 
	C313.187073,332.357727 351.231171,331.178101 377.530731,307.032135 
M168.190704,327.375519 
	C182.717148,328.698578 196.993179,328.212830 210.447266,322.047821 
	C210.560837,319.378510 209.215164,317.783539 208.279495,316.074646 
	C203.987366,308.235596 203.959839,308.250671 195.137177,310.210175 
	C169.045822,316.005066 142.230377,305.321655 127.485733,283.257477 
	C112.282654,260.507294 112.929199,231.271149 129.088409,208.705414 
	C130.075607,207.326813 132.416031,206.027191 130.959747,204.051788 
	C127.855530,199.841034 124.674568,195.625916 120.255638,191.823395 
	C100.340981,214.540710 93.897095,240.334106 101.915802,268.443085 
	C111.236206,301.115082 133.862228,320.574554 168.190704,327.375519 
M199.839661,403.587006 
	C290.661224,433.723541 375.437775,379.905090 400.959045,308.885193 
	C397.280396,314.724548 391.545441,317.849121 388.608826,323.420624 
	C383.308807,333.476196 377.157104,342.967407 369.627563,351.504578 
	C332.771576,393.292755 286.377777,411.866608 231.273071,404.829773 
	C180.329498,398.324310 141.902252,371.354004 116.390572,326.625305 
	C112.802002,320.333588 107.698975,315.735474 102.802711,310.805359 
	C121.478577,355.588318 153.430084,386.597137 199.839661,403.587006 
M214.215439,367.310089 
	C197.735077,356.666840 181.480469,345.744354 160.869125,344.419830 
	C152.285370,343.868225 144.350861,339.940857 135.988129,336.627899 
	C151.026703,365.870697 214.690796,400.337189 242.832672,394.834747 
	C239.538544,388.093689 228.256638,377.186279 214.215439,367.310089 
M273.753601,379.252197 
	C268.736694,384.117950 263.496094,388.796478 259.440552,395.534149 
	C281.407227,394.128571 301.166992,388.509186 319.723541,378.539734 
	C339.550110,367.888031 364.349152,345.711365 365.457153,337.181488 
	C355.219971,341.736145 344.728699,345.095001 333.757111,345.830109 
	C326.621826,346.308197 320.653168,349.181763 314.584412,352.210388 
	C300.087311,359.445221 286.518616,368.108307 273.753601,379.252197 
M351.926422,126.585625 
	C312.621948,96.027748 268.434326,85.002487 219.564957,94.479347 
	C190.644836,100.087608 165.296021,113.206886 143.085083,133.602066 
	C147.787979,135.715576 150.592590,134.199387 153.489838,131.838318 
	C180.473358,109.848541 211.548569,98.056175 246.185455,96.976341 
	C285.241913,95.758728 320.303314,107.554703 350.553497,132.671631 
	C353.335968,134.981934 355.971497,135.269638 359.520142,133.816757 
	C357.500610,130.808731 354.770111,129.138550 351.926422,126.585625 
M331.605103,257.054108 
	C324.176392,267.985199 316.608276,278.829742 310.211212,290.421356 
	C320.149506,296.193176 340.413666,291.316772 349.792145,276.333618 
	C357.938995,263.318268 356.808868,243.474945 346.761078,235.877533 
	C341.843079,242.742004 336.928528,249.601700 331.605103,257.054108 
M150.427048,262.862579 
	C156.166260,284.800385 179.384460,299.989014 193.326355,290.514771 
	C182.252106,272.241394 170.350067,254.535828 156.988922,236.971939 
	C150.925339,244.907181 149.690063,253.189072 150.427048,262.862579 
M98.736435,186.972855 
	C102.127876,186.113876 103.046051,182.646164 105.380997,180.669632 
	C108.094795,178.372406 107.439247,176.389587 105.132515,174.057083 
	C99.283920,168.143143 93.656181,162.011185 87.913048,155.992264 
	C86.148834,154.143341 84.363953,152.287643 80.661224,150.396149 
	C86.966888,163.333725 92.628159,174.949173 98.736435,186.972855 
M419.656494,156.323349 
	C420.230865,154.686935 421.558044,153.259491 421.096558,150.890182 
	C414.489410,156.402771 409.051605,162.636871 403.317932,168.561508 
	C394.484406,177.689301 394.505798,177.714203 403.254913,186.734848 
	C403.447144,186.933044 403.850983,186.925995 404.771698,187.193604 
	C409.598328,177.177612 414.467407,167.073563 419.656494,156.323349 
M148.189194,225.250916 
	C146.917755,223.769882 146.098724,221.845596 144.149414,221.032623 
	C133.480423,230.638290 132.082260,257.578644 140.399429,267.187927 
	C138.168976,254.432175 140.263336,242.505981 147.421112,231.552185 
	C148.542664,229.835846 150.485153,228.179520 148.189194,225.250916 
M368.193329,244.878021 
	C367.673126,235.952103 365.018311,227.830063 359.608124,220.529831 
	C354.382233,225.059387 353.804718,225.866058 355.676971,228.231354 
	C362.575073,236.945969 365.430206,247.066772 366.382446,259.152222 
	C368.021149,253.928146 368.342987,249.844147 368.193329,244.878021 
M224.221970,346.926697 
	C219.472839,337.280151 218.805374,337.026062 211.911972,342.524567 
	C216.491821,345.431396 220.984924,348.283173 226.409348,351.726044 
	C225.462051,349.587189 225.002090,348.548676 224.221970,346.926697 
M284.497314,339.070648 
	C280.129547,341.622314 279.700714,346.427734 278.226929,350.881653 
	C282.545990,348.071960 286.865082,345.262299 291.351196,342.343933 
	C289.284943,340.282806 287.130981,339.901123 284.497314,339.070648 
z"/>
</svg>